{
	"asset":{
		"generator":"Khronos glTF Blender I/O v3.5.30",
		"version":"2.0"
	},
	"extensionsUsed":[
		"KHR_materials_specular",
		"KHR_materials_ior",
		"KHR_materials_transmission"
	],
	"scene":0,
	"scenes":[
		{
			"name":"Scene",
			"nodes":[
				0,
				1,
				2,
				3,
				4,
				5,
				6,
				7
			]
		}
	],
	"nodes":[
		{
			"mesh":0,
			"name":"Cube",
			"translation":[
				-1.1229262351989746,
				1.7406506538391113,
				0.4257240295410156
			]
		},
		{
			"mesh":1,
			"name":"Circle.005",
			"scale":[
				0.16201791167259216,
				0.1230517327785492,
				0.18950022757053375
			],
			"translation":[
				-1.7866851091384888,
				2.27555251121521,
				0.3763556182384491
			]
		},
		{
			"mesh":2,
			"name":"Circle.006",
			"rotation":[
				0,
				-0.2832004725933075,
				0,
				0.959060788154602
			],
			"scale":[
				0.18625538051128387,
				0.09025654196739197,
				0.18625538051128387
			],
			"translation":[
				-1.1662565469741821,
				2.3421096801757812,
				0.41151124238967896
			]
		},
		{
			"mesh":3,
			"name":"Circle.008",
			"scale":[
				1.02698814868927,
				0.9914847016334534,
				0.989199161529541
			],
			"translation":[
				-2.6690123081207275,
				1.4507169723510742,
				4.921688079833984
			]
		},
		{
			"mesh":4,
			"name":"Circle.009",
			"rotation":[
				0,
				-0.9188843369483948,
				0,
				0.39452701807022095
			],
			"scale":[
				0.21588915586471558,
				0.08296559005975723,
				0.21588915586471558
			],
			"translation":[
				0.41629940271377563,
				2.3306593894958496,
				0.44642820954322815
			]
		},
		{
			"mesh":5,
			"name":"Plane.004",
			"rotation":[
				0.7071068286895752,
				0,
				0,
				0.7071068286895752
			],
			"scale":[
				0.8712435960769653,
				0.8712435960769653,
				0.8712435960769653
			],
			"translation":[
				-0.34895122051239014,
				1.220485806465149,
				-1.1727617979049683
			]
		},
		{
			"mesh":6,
			"name":"Circle.012",
			"rotation":[
				0.7071068286895752,
				0,
				0,
				0.7071068286895752
			],
			"scale":[
				0.27536460757255554,
				0.27536460757255554,
				0.27536460757255554
			],
			"translation":[
				-7.859816551208496,
				0.8799374103546143,
				-0.4532792270183563
			]
		},
		{
			"mesh":7,
			"name":"Circle.013",
			"rotation":[
				-0.7071068286895752,
				0,
				0,
				0.7071068286895752
			],
			"scale":[
				0.6660588383674622,
				0.6049527525901794,
				0.6660588383674622
			],
			"translation":[
				0.9245265126228333,
				1.7771730422973633,
				0.9663370847702026
			]
		}
	],
	"materials":[
		{
			"doubleSided":true,
			"name":"Body",
			"pbrMetallicRoughness":{
				"baseColorFactor":[
					0.01599314995110035,
					0.01599314995110035,
					0.01599314995110035,
					1
				],
				"metallicFactor":0
			}
		},
		{
			"doubleSided":true,
			"name":"steel",
			"pbrMetallicRoughness":{
				"roughnessFactor":0.20731708407402039
			}
		},
		{
			"doubleSided":true,
			"extensions":{
				"KHR_materials_specular":{
					"specularColorFactor":[
						1.185678807220699,
						1.185678807220699,
						1.185678807220699
					]
				},
				"KHR_materials_ior":{
					"ior":1.4500000476837158
				}
			},
			"name":"pureblack",
			"pbrMetallicRoughness":{
				"baseColorFactor":[
					0.005603456404060125,
					0.005603456404060125,
					0.005603456404060125,
					1
				],
				"metallicFactor":0.2845528721809387,
				"roughnessFactor":0.5
			}
		},
		{
			"doubleSided":true,
			"name":"steel.001",
			"pbrMetallicRoughness":{
				"baseColorTexture":{
					"index":0
				},
				"roughnessFactor":0.20731708407402039
			}
		},
		{
			"doubleSided":true,
			"extensions":{
				"KHR_materials_transmission":{
					"transmissionFactor":1
				},
				"KHR_materials_ior":{
					"ior":1.4500000476837158
				}
			},
			"name":"glass",
			"pbrMetallicRoughness":{
				"baseColorFactor":[
					0.800000011920929,
					0.800000011920929,
					0.800000011920929,
					1
				],
				"metallicFactor":0,
				"roughnessFactor":0
			}
		},
		{
			"doubleSided":true,
			"extensions":{
				"KHR_materials_transmission":{
					"transmissionFactor":0.2295081913471222
				},
				"KHR_materials_ior":{
					"ior":1.4500000476837158
				}
			},
			"name":"glass.001",
			"pbrMetallicRoughness":{
				"baseColorFactor":[
					0.0025798308197408915,
					0.0025798308197408915,
					0.0025798308197408915,
					1
				],
				"metallicFactor":0.2295081913471222,
				"roughnessFactor":0
			}
		}
	],
	"meshes":[
		{
			"name":"Cube",
			"primitives":[
				{
					"attributes":{
						"POSITION":0,
						"TEXCOORD_0":1,
						"NORMAL":2
					},
					"indices":3,
					"material":0
				},
				{
					"attributes":{
						"POSITION":4,
						"TEXCOORD_0":5,
						"NORMAL":6
					},
					"indices":7,
					"material":1
				},
				{
					"attributes":{
						"POSITION":8,
						"TEXCOORD_0":9,
						"NORMAL":10
					},
					"indices":11,
					"material":2
				},
				{
					"attributes":{
						"POSITION":12,
						"TEXCOORD_0":13,
						"NORMAL":14
					},
					"indices":15,
					"material":3
				},
				{
					"attributes":{
						"POSITION":16,
						"TEXCOORD_0":17,
						"NORMAL":18
					},
					"indices":19,
					"material":4
				}
			]
		},
		{
			"name":"Circle.006",
			"primitives":[
				{
					"attributes":{
						"POSITION":20,
						"TEXCOORD_0":21,
						"NORMAL":22
					},
					"indices":23,
					"material":1
				}
			]
		},
		{
			"name":"Circle.008",
			"primitives":[
				{
					"attributes":{
						"POSITION":24,
						"TEXCOORD_0":25,
						"NORMAL":26
					},
					"indices":27,
					"material":1
				}
			]
		},
		{
			"name":"Circle.011",
			"primitives":[
				{
					"attributes":{
						"POSITION":28,
						"TEXCOORD_0":29,
						"NORMAL":30
					},
					"indices":31,
					"material":1
				}
			]
		},
		{
			"name":"Circle.012",
			"primitives":[
				{
					"attributes":{
						"POSITION":32,
						"TEXCOORD_0":33,
						"NORMAL":34
					},
					"indices":27,
					"material":1
				}
			]
		},
		{
			"name":"Plane.004",
			"primitives":[
				{
					"attributes":{
						"POSITION":35,
						"TEXCOORD_0":36,
						"NORMAL":37
					},
					"indices":38,
					"material":2
				},
				{
					"attributes":{
						"POSITION":39,
						"TEXCOORD_0":40,
						"NORMAL":41
					},
					"indices":42,
					"material":5
				}
			]
		},
		{
			"name":"Circle.004",
			"primitives":[
				{
					"attributes":{
						"POSITION":43,
						"TEXCOORD_0":44,
						"NORMAL":45
					},
					"indices":46,
					"material":2
				}
			]
		},
		{
			"name":"Circle.001",
			"primitives":[
				{
					"attributes":{
						"POSITION":47,
						"TEXCOORD_0":48,
						"NORMAL":49
					},
					"indices":50,
					"material":2
				},
				{
					"attributes":{
						"POSITION":51,
						"TEXCOORD_0":52,
						"NORMAL":53
					},
					"indices":54,
					"material":4
				}
			]
		}
	],
	"textures":[
		{
			"sampler":0,
			"source":0
		}
	],
	"images":[
		{
			"bufferView":16,
			"mimeType":"image/png",
			"name":"1280px-Fujifilm_logo.svg (1)"
		}
	],
	"accessors":[
		{
			"bufferView":0,
			"componentType":5126,
			"count":2459,
			"max":[
				1.853635549545288,
				0.1597641557455063,
				0.40751099586486816
			],
			"min":[
				-0.8648428916931152,
				-1.0635581016540527,
				-0.269544392824173
			],
			"type":"VEC3"
		},
		{
			"bufferView":1,
			"componentType":5126,
			"count":2459,
			"type":"VEC2"
		},
		{
			"bufferView":2,
			"componentType":5126,
			"count":2459,
			"type":"VEC3"
		},
		{
			"bufferView":3,
			"componentType":5123,
			"count":5157,
			"type":"SCALAR"
		},
		{
			"bufferView":4,
			"componentType":5126,
			"count":8117,
			"max":[
				1.9703454971313477,
				0.7889024615287781,
				0.40751099586486816
			],
			"min":[
				-0.97665935754776,
				-1.1745412349700928,
				-0.3496589660644531
			],
			"type":"VEC3"
		},
		{
			"bufferView":5,
			"componentType":5126,
			"count":8117,
			"type":"VEC2"
		},
		{
			"bufferView":6,
			"componentType":5126,
			"count":8117,
			"type":"VEC3"
		},
		{
			"bufferView":7,
			"componentType":5123,
			"count":15171,
			"type":"SCALAR"
		},
		{
			"bufferView":8,
			"componentType":5126,
			"count":2437,
			"max":[
				1.1900091171264648,
				0.7789273262023926,
				-0.12117785215377808
			],
			"min":[
				0.17019695043563843,
				-0.6733260154724121,
				-0.3756052851676941
			],
			"type":"VEC3"
		},
		{
			"bufferView":9,
			"componentType":5126,
			"count":2437,
			"type":"VEC2"
		},
		{
			"bufferView":10,
			"componentType":5126,
			"count":2437,
			"type":"VEC3"
		},
		{
			"bufferView":11,
			"componentType":5123,
			"count":4551,
			"type":"SCALAR"
		},
		{
			"bufferView":12,
			"componentType":5126,
			"count":4,
			"max":[
				0.931315004825592,
				0.4569375514984131,
				0.29962706565856934
			],
			"min":[
				0.3915002644062042,
				0.35466113686561584,
				0.2989500164985657
			],
			"type":"VEC3"
		},
		{
			"bufferView":13,
			"componentType":5126,
			"count":4,
			"type":"VEC2"
		},
		{
			"bufferView":14,
			"componentType":5126,
			"count":4,
			"type":"VEC3"
		},
		{
			"bufferView":15,
			"componentType":5123,
			"count":6,
			"type":"SCALAR"
		},
		{
			"bufferView":17,
			"componentType":5126,
			"count":16,
			"max":[
				0.7774133682250977,
				0.45136743783950806,
				-0.3033815026283264
			],
			"min":[
				0.6124597191810608,
				0.320308655500412,
				-0.3033815026283264
			],
			"type":"VEC3"
		},
		{
			"bufferView":18,
			"componentType":5126,
			"count":16,
			"type":"VEC2"
		},
		{
			"bufferView":19,
			"componentType":5126,
			"count":16,
			"type":"VEC3"
		},
		{
			"bufferView":20,
			"componentType":5123,
			"count":42,
			"type":"SCALAR"
		},
		{
			"bufferView":21,
			"componentType":5126,
			"count":3084,
			"max":[
				1.0422154664993286,
				0.1943560689687729,
				1.0515588521957397
			],
			"min":[
				-1.0438023805618286,
				-0.18442875146865845,
				-1.0422154664993286
			],
			"type":"VEC3"
		},
		{
			"bufferView":22,
			"componentType":5126,
			"count":3084,
			"type":"VEC2"
		},
		{
			"bufferView":23,
			"componentType":5126,
			"count":3084,
			"type":"VEC3"
		},
		{
			"bufferView":24,
			"componentType":5123,
			"count":5772,
			"type":"SCALAR"
		},
		{
			"bufferView":25,
			"componentType":5126,
			"count":12227,
			"max":[
				1.0619868040084839,
				0.1943570226430893,
				1.059083104133606
			],
			"min":[
				-1.4067368507385254,
				-1.1183809041976929,
				-1.058064579963684
			],
			"type":"VEC3"
		},
		{
			"bufferView":26,
			"componentType":5126,
			"count":12227,
			"type":"VEC2"
		},
		{
			"bufferView":27,
			"componentType":5126,
			"count":12227,
			"type":"VEC3"
		},
		{
			"bufferView":28,
			"componentType":5123,
			"count":22152,
			"type":"SCALAR"
		},
		{
			"bufferView":29,
			"componentType":5126,
			"count":2158,
			"max":[
				1.2727948427200317,
				0.8958076238632202,
				-4.258075714111328
			],
			"min":[
				0.9980827569961548,
				0.8149158358573914,
				-4.530537128448486
			],
			"type":"VEC3"
		},
		{
			"bufferView":30,
			"componentType":5126,
			"count":2158,
			"type":"VEC2"
		},
		{
			"bufferView":31,
			"componentType":5126,
			"count":2158,
			"type":"VEC3"
		},
		{
			"bufferView":32,
			"componentType":5123,
			"count":3648,
			"type":"SCALAR"
		},
		{
			"bufferView":33,
			"componentType":5126,
			"count":12227,
			"max":[
				1.0619868040084839,
				0.1943570226430893,
				1.059083104133606
			],
			"min":[
				-1.4067368507385254,
				-1.1183809041976929,
				-1.058064579963684
			],
			"type":"VEC3"
		},
		{
			"bufferView":34,
			"componentType":5126,
			"count":12227,
			"type":"VEC2"
		},
		{
			"bufferView":35,
			"componentType":5126,
			"count":12227,
			"type":"VEC3"
		},
		{
			"bufferView":36,
			"componentType":5126,
			"count":192,
			"max":[
				1.0105787515640259,
				1.5433334112167358,
				0.7338079810142517
			],
			"min":[
				-1.1206936836242676,
				1.4809179306030273,
				-0.7338081002235413
			],
			"type":"VEC3"
		},
		{
			"bufferView":37,
			"componentType":5126,
			"count":192,
			"type":"VEC2"
		},
		{
			"bufferView":38,
			"componentType":5126,
			"count":192,
			"type":"VEC3"
		},
		{
			"bufferView":39,
			"componentType":5123,
			"count":426,
			"type":"SCALAR"
		},
		{
			"bufferView":40,
			"componentType":5126,
			"count":16,
			"max":[
				0.9289548397064209,
				1.5099759101867676,
				0.6525359749794006
			],
			"min":[
				-1.0390700101852417,
				1.509975790977478,
				-0.6525360941886902
			],
			"type":"VEC3"
		},
		{
			"bufferView":41,
			"componentType":5126,
			"count":16,
			"type":"VEC2"
		},
		{
			"bufferView":42,
			"componentType":5126,
			"count":16,
			"type":"VEC3"
		},
		{
			"bufferView":43,
			"componentType":5123,
			"count":42,
			"type":"SCALAR"
		},
		{
			"bufferView":44,
			"componentType":5126,
			"count":608,
			"max":[
				29.996994018554688,
				4.243334770202637,
				0.329924076795578
			],
			"min":[
				29.08304786682129,
				3.989807367324829,
				-0.7005941271781921
			],
			"type":"VEC3"
		},
		{
			"bufferView":45,
			"componentType":5126,
			"count":608,
			"type":"VEC2"
		},
		{
			"bufferView":46,
			"componentType":5126,
			"count":608,
			"type":"VEC3"
		},
		{
			"bufferView":47,
			"componentType":5123,
			"count":1008,
			"type":"SCALAR"
		},
		{
			"bufferView":48,
			"componentType":5126,
			"count":10752,
			"max":[
				-1.0929287672042847,
				0.5964094400405884,
				0.26753973960876465
			],
			"min":[
				-3.1713061332702637,
				-1.8833202123641968,
				-1.810837745666504
			],
			"type":"VEC3"
		},
		{
			"bufferView":49,
			"componentType":5126,
			"count":10752,
			"type":"VEC2"
		},
		{
			"bufferView":50,
			"componentType":5126,
			"count":10752,
			"type":"VEC3"
		},
		{
			"bufferView":51,
			"componentType":5123,
			"count":16458,
			"type":"SCALAR"
		},
		{
			"bufferView":52,
			"componentType":5126,
			"count":559,
			"max":[
				-1.3029268980026245,
				-1.5562907457351685,
				0.04672437906265259
			],
			"min":[
				-2.9505722522735596,
				-1.9451711177825928,
				-1.6009228229522705
			],
			"type":"VEC3"
		},
		{
			"bufferView":53,
			"componentType":5126,
			"count":559,
			"type":"VEC2"
		},
		{
			"bufferView":54,
			"componentType":5126,
			"count":559,
			"type":"VEC3"
		},
		{
			"bufferView":55,
			"componentType":5123,
			"count":2880,
			"type":"SCALAR"
		}
	],
	"bufferViews":[
		{
			"buffer":0,
			"byteLength":29508,
			"byteOffset":0,
			"target":34962
		},
		{
			"buffer":0,
			"byteLength":19672,
			"byteOffset":29508,
			"target":34962
		},
		{
			"buffer":0,
			"byteLength":29508,
			"byteOffset":49180,
			"target":34962
		},
		{
			"buffer":0,
			"byteLength":10314,
			"byteOffset":78688,
			"target":34963
		},
		{
			"buffer":0,
			"byteLength":97404,
			"byteOffset":89004,
			"target":34962
		},
		{
			"buffer":0,
			"byteLength":64936,
			"byteOffset":186408,
			"target":34962
		},
		{
			"buffer":0,
			"byteLength":97404,
			"byteOffset":251344,
			"target":34962
		},
		{
			"buffer":0,
			"byteLength":30342,
			"byteOffset":348748,
			"target":34963
		},
		{
			"buffer":0,
			"byteLength":29244,
			"byteOffset":379092,
			"target":34962
		},
		{
			"buffer":0,
			"byteLength":19496,
			"byteOffset":408336,
			"target":34962
		},
		{
			"buffer":0,
			"byteLength":29244,
			"byteOffset":427832,
			"target":34962
		},
		{
			"buffer":0,
			"byteLength":9102,
			"byteOffset":457076,
			"target":34963
		},
		{
			"buffer":0,
			"byteLength":48,
			"byteOffset":466180,
			"target":34962
		},
		{
			"buffer":0,
			"byteLength":32,
			"byteOffset":466228,
			"target":34962
		},
		{
			"buffer":0,
			"byteLength":48,
			"byteOffset":466260,
			"target":34962
		},
		{
			"buffer":0,
			"byteLength":12,
			"byteOffset":466308,
			"target":34963
		},
		{
			"buffer":0,
			"byteLength":9359,
			"byteOffset":466320
		},
		{
			"buffer":0,
			"byteLength":192,
			"byteOffset":475680,
			"target":34962
		},
		{
			"buffer":0,
			"byteLength":128,
			"byteOffset":475872,
			"target":34962
		},
		{
			"buffer":0,
			"byteLength":192,
			"byteOffset":476000,
			"target":34962
		},
		{
			"buffer":0,
			"byteLength":84,
			"byteOffset":476192,
			"target":34963
		},
		{
			"buffer":0,
			"byteLength":37008,
			"byteOffset":476276,
			"target":34962
		},
		{
			"buffer":0,
			"byteLength":24672,
			"byteOffset":513284,
			"target":34962
		},
		{
			"buffer":0,
			"byteLength":37008,
			"byteOffset":537956,
			"target":34962
		},
		{
			"buffer":0,
			"byteLength":11544,
			"byteOffset":574964,
			"target":34963
		},
		{
			"buffer":0,
			"byteLength":146724,
			"byteOffset":586508,
			"target":34962
		},
		{
			"buffer":0,
			"byteLength":97816,
			"byteOffset":733232,
			"target":34962
		},
		{
			"buffer":0,
			"byteLength":146724,
			"byteOffset":831048,
			"target":34962
		},
		{
			"buffer":0,
			"byteLength":44304,
			"byteOffset":977772,
			"target":34963
		},
		{
			"buffer":0,
			"byteLength":25896,
			"byteOffset":1022076,
			"target":34962
		},
		{
			"buffer":0,
			"byteLength":17264,
			"byteOffset":1047972,
			"target":34962
		},
		{
			"buffer":0,
			"byteLength":25896,
			"byteOffset":1065236,
			"target":34962
		},
		{
			"buffer":0,
			"byteLength":7296,
			"byteOffset":1091132,
			"target":34963
		},
		{
			"buffer":0,
			"byteLength":146724,
			"byteOffset":1098428,
			"target":34962
		},
		{
			"buffer":0,
			"byteLength":97816,
			"byteOffset":1245152,
			"target":34962
		},
		{
			"buffer":0,
			"byteLength":146724,
			"byteOffset":1342968,
			"target":34962
		},
		{
			"buffer":0,
			"byteLength":2304,
			"byteOffset":1489692,
			"target":34962
		},
		{
			"buffer":0,
			"byteLength":1536,
			"byteOffset":1491996,
			"target":34962
		},
		{
			"buffer":0,
			"byteLength":2304,
			"byteOffset":1493532,
			"target":34962
		},
		{
			"buffer":0,
			"byteLength":852,
			"byteOffset":1495836,
			"target":34963
		},
		{
			"buffer":0,
			"byteLength":192,
			"byteOffset":1496688,
			"target":34962
		},
		{
			"buffer":0,
			"byteLength":128,
			"byteOffset":1496880,
			"target":34962
		},
		{
			"buffer":0,
			"byteLength":192,
			"byteOffset":1497008,
			"target":34962
		},
		{
			"buffer":0,
			"byteLength":84,
			"byteOffset":1497200,
			"target":34963
		},
		{
			"buffer":0,
			"byteLength":7296,
			"byteOffset":1497284,
			"target":34962
		},
		{
			"buffer":0,
			"byteLength":4864,
			"byteOffset":1504580,
			"target":34962
		},
		{
			"buffer":0,
			"byteLength":7296,
			"byteOffset":1509444,
			"target":34962
		},
		{
			"buffer":0,
			"byteLength":2016,
			"byteOffset":1516740,
			"target":34963
		},
		{
			"buffer":0,
			"byteLength":129024,
			"byteOffset":1518756,
			"target":34962
		},
		{
			"buffer":0,
			"byteLength":86016,
			"byteOffset":1647780,
			"target":34962
		},
		{
			"buffer":0,
			"byteLength":129024,
			"byteOffset":1733796,
			"target":34962
		},
		{
			"buffer":0,
			"byteLength":32916,
			"byteOffset":1862820,
			"target":34963
		},
		{
			"buffer":0,
			"byteLength":6708,
			"byteOffset":1895736,
			"target":34962
		},
		{
			"buffer":0,
			"byteLength":4472,
			"byteOffset":1902444,
			"target":34962
		},
		{
			"buffer":0,
			"byteLength":6708,
			"byteOffset":1906916,
			"target":34962
		},
		{
			"buffer":0,
			"byteLength":5760,
			"byteOffset":1913624,
			"target":34963
		}
	],
	"samplers":[
		{
			"magFilter":9729,
			"minFilter":9987,
			"wrapS":33071,
			"wrapT":33071
		}
	],
	"buffers":[
		{
			"byteLength":1919384,
			"uri":"data:application/octet-stream;base64,"
		}
	]
}
